<?xml version="1.0" encoding="UTF-8"?>
<svg data-bbox="0 -0.02 247.52 293.27" viewBox="0 0 247.48 293.26" xmlns="http://www.w3.org/2000/svg" data-type="color">
    <g>
        <path d="M148.8 98.69c2.4 2.43 5.07 4.66 7.91 6.63 9.71 6.75 21.12 10.32 32.98 10.32s23.26-3.57 32.97-10.32c2.84-1.97 5.5-4.2 7.9-6.62 2.44-2.44 4.67-5.1 6.62-7.92l1.05-1.51-17.71-17.7-1.41 2.55A33.73 33.73 0 0 1 206 87.26c-9.87 5.53-22.72 5.54-32.61 0a33.638 33.638 0 0 1-13.12-13.12c-2.76-4.93-4.22-10.57-4.22-16.3s1.46-11.37 4.22-16.3a33.87 33.87 0 0 1 13.15-13.13c9.87-5.53 22.68-5.53 32.57 0 5.54 3.06 10.08 7.6 13.13 13.13l1.41 2.56 17.71-17.71-1.05-1.51a57.432 57.432 0 0 0-6.62-7.92c-2.44-2.44-5.1-4.67-7.92-6.62C212.94 3.57 201.55 0 189.68 0s-23.26 3.57-32.95 10.32a57.432 57.432 0 0 0-7.92 6.62 56.47 56.47 0 0 0-6.6 7.92c-6.77 9.68-10.35 21.08-10.35 32.96s3.58 23.28 10.34 32.94a56.78 56.78 0 0 0 6.6 7.93" fill="#ffffff" data-color="1"/>
        <path d="M158.68 176.6c.22-.52.44-1.03.69-1.53.26-.54.54-1.07.83-1.6.08-.14.16-.27.24-.41.72-1.25 1.5-2.46 2.36-3.6.02-.02.04-.05.05-.08.46-.61.94-1.2 1.45-1.78.03-.03.06-.07.09-.1 2.56-2.92 5.6-5.38 9.02-7.28 9.87-5.53 22.68-5.53 32.57 0a33.63 33.63 0 0 1 7.99 6.16c.5.52.98 1.06 1.45 1.61.26.31.52.63.77.95.47.6.92 1.22 1.34 1.85.19.29.39.58.58.87 1.17 1.85 2.17 3.8 2.95 5.83h-62.73c.12-.31.24-.61.37-.91m87.86 2.78c-1.36-7.6-4.22-14.73-8.36-21.12l.03-.03-1.05-1.51c-.07-.1-.15-.19-.22-.29-.83-1.17-1.7-2.32-2.62-3.43-.13-.16-.25-.33-.39-.49-1.08-1.28-2.2-2.54-3.4-3.73-1.2-1.2-2.46-2.33-3.75-3.41-.09-.08-.19-.14-.28-.22-1.2-.99-2.43-1.93-3.7-2.82-.06-.04-.12-.1-.19-.14-.14-.1-.29-.18-.43-.27-.98-.67-1.98-1.32-3-1.93-.29-.17-.58-.33-.87-.5-.94-.54-1.89-1.06-2.85-1.54-.42-.21-.85-.41-1.28-.61-.84-.39-1.68-.78-2.54-1.13-.59-.24-1.19-.46-1.79-.69-.71-.26-1.42-.53-2.14-.76-.76-.25-1.53-.47-2.3-.69-.59-.17-1.17-.33-1.77-.48-.9-.22-1.8-.41-2.71-.59-.34-.07-.66-.16-1-.22-.15-.03-.31-.04-.46-.06a58.5 58.5 0 0 0-3.95-.53c-.32-.03-.62-.08-.94-.11-1.63-.14-3.27-.22-4.92-.22s-3.32.09-4.96.23c-.35.03-.7.08-1.05.12-1.35.14-2.69.32-4.02.55l-.24.03c-.17.03-.34.08-.51.11-1.12.21-2.24.45-3.35.73-.48.12-.94.26-1.42.39-.85.24-1.7.48-2.54.76-.72.23-1.43.5-2.14.76-.57.21-1.14.42-1.71.65-.95.39-1.88.81-2.8 1.24-.32.15-.64.3-.95.45-1.12.56-2.22 1.15-3.31 1.78-.12.07-.24.14-.36.2-1.23.72-2.42 1.49-3.6 2.31a57.807 57.807 0 0 0-7.94 6.6 57.497 57.497 0 0 0-10.98 15.38c-.06.12-.11.24-.17.36-.53 1.09-1.03 2.2-1.48 3.33a74.972 74.972 0 0 0-1.39 3.77c-.24.74-.46 1.48-.67 2.23-.15.54-.31 1.09-.45 1.63-.27 1.06-.5 2.13-.7 3.21-.03.17-.08.33-.11.5l-.07.39-.03.21c-.23 1.3-.4 2.62-.53 3.94-.04.36-.09.72-.12 1.09-.13 1.56-.21 3.13-.21 4.71v.14c0 1.56.07 3.1.19 4.64.05.67.15 1.34.23 2.01.1.91.21 1.81.35 2.71.04.23.05.46.09.69v.72l.17.18c.07.37.18.73.26 1.1.14.68.3 1.36.47 2.04.19.74.39 1.48.6 2.22a54.518 54.518 0 0 0 1.44 4.28c.18.48.37.96.57 1.44.39.95.81 1.89 1.26 2.82.15.31.29.61.44.91.55 1.1 1.14 2.19 1.76 3.25.07.12.14.25.21.37 1.54 2.6 3.28 5.09 5.23 7.44l.23.29c1.08 1.29 2.21 2.56 3.42 3.76 1.15 1.15 2.35 2.23 3.58 3.27.36.3.73.58 1.1.87.91.73 1.83 1.45 2.78 2.12.16.11.31.25.47.36.34.24.7.44 1.04.67.69.46 1.39.91 2.1 1.34.57.34 1.15.67 1.73.99.67.37 1.34.74 2.02 1.09.68.35 1.38.67 2.08.99.58.27 1.17.54 1.76.78.83.35 1.68.67 2.53.98.47.17.95.35 1.43.51.97.33 1.96.61 2.95.89.39.11.77.22 1.16.32 1.06.27 2.13.49 3.21.7.23.05.46.11.7.15.11.02.23.03.35.05 1.35.23 2.7.41 4.07.55.26.03.52.07.78.09 1.69.15 3.38.24 5.09.24 3.46 0 6.87-.34 10.23-.94h.05l1.81-.33v-.02a57.299 57.299 0 0 0 20.89-9.03c2.84-1.97 5.5-4.2 7.9-6.62 2.44-2.43 4.66-5.1 6.62-7.92l1.05-1.51-17.71-17.7-1.41 2.55a33.73 33.73 0 0 1-13.11 13.14c-2.33 1.31-4.83 2.29-7.41 2.98-.33.09-.66.17-.99.25-5.99 1.4-12.39 1.19-18.25-.66-.08-.03-.16-.05-.24-.08a29.3 29.3 0 0 1-1.57-.56c-.2-.08-.4-.15-.59-.23-.42-.17-.82-.35-1.23-.53-.26-.12-.51-.23-.76-.36-.41-.2-.82-.41-1.22-.63a35.287 35.287 0 0 1-2.11-1.24c-.13-.09-.27-.17-.4-.25-.55-.36-1.08-.73-1.6-1.12-.09-.06-.17-.12-.26-.19a34.152 34.152 0 0 1-5.47-5.22c-.25-.3-.5-.61-.75-.92-.46-.59-.89-1.19-1.31-1.8-.3-.44-.58-.89-.86-1.34-.35-.57-.69-1.15-1-1.74-.17-.32-.34-.65-.5-.97-.41-.85-.8-1.7-1.14-2.58-.03-.07-.05-.14-.08-.21l87.97.06.33-1.8a57.992 57.992 0 0 0 0-20.58" fill="#ffffff" data-color="1"/>
        <path d="M71.44 131.84c-12.09 0-23.87 3.8-33.65 10.78v-10.79H13.62v115.64h24.17v-58.04c.02-1.74.15-3.4.39-4.93 2.51-16.25 16.81-28.5 33.26-28.5 9.78 0 19.06 4.26 25.47 11.69l1.54 1.79 17.19-17.19-1.41-1.55c-10.93-12.02-26.53-18.91-42.79-18.91" fill="#ffffff" data-color="1"/>
        <path d="M90.79 64.52c-.22 1.14-.51 2.24-.88 3.34-.11.35-.22.73-.35 1.05-.09.29-.18.57-.31.86-.13.33-.26.66-.4.99-.22.55-.46 1.1-.72 1.65-.29.57-.59 1.14-.9 1.71-.31.55-.64 1.1-.99 1.65-.22.37-.46.75-.72 1.1-.48.7-.99 1.38-1.52 2.04-.31.4-.64.81-.99 1.19-.29.33-.57.64-.88.95-.18.2-.37.37-.55.57-.42.44-.86.83-1.3 1.23-.35.31-.68.59-1.03.88-.07.09-.11.13-.18.15-.64.53-1.27 1.03-1.95 1.47-.42.31-.84.59-1.25.86-.46.29-.92.57-1.38.83-.11.07-.24.15-.37.22-1.06.59-2.13 1.1-3.23 1.56-.37.18-.75.31-1.14.46-.46.17-.94.35-1.45.51-7.4 2.37-15.64 2.13-22.85-.66-.7-.29-1.38-.57-2.04-.9-.66-.29-1.28-.62-1.89-.97h-.02c-.46-.26-.9-.53-1.34-.81-.39-.22-.77-.46-1.14-.72-.66-.42-1.3-.88-1.91-1.41-.37-.29-.77-.59-1.12-.9-.13-.09-.26-.22-.4-.35-.55-.46-1.05-.94-1.56-1.45-.5-.51-.99-1.03-1.45-1.56-.13-.13-.24-.26-.35-.4-.31-.37-.61-.73-.9-1.12-.22-.24-.39-.51-.57-.75-.4-.53-.79-1.08-1.14-1.65-.44-.66-.86-1.34-1.23-2.02l-.26-.48c-2.53-4.72-3.95-10.11-3.95-15.82s1.36-10.85 3.78-15.49c.13-.26.29-.53.44-.79.35-.66.75-1.32 1.16-1.96.04-.04.07-.09.09-.13.4-.59.79-1.19 1.23-1.76.02-.04.04-.09.09-.11.46-.64.94-1.23 1.47-1.82.51-.59 1.03-1.16 1.6-1.71a23.6 23.6 0 0 1 1.71-1.6c.59-.53 1.19-1.03 1.82-1.47.04-.04.09-.07.13-.11.57-.44 1.19-.88 1.8-1.25.66-.42 1.32-.83 2.02-1.21 8.66-4.85 19.55-5.45 28.76-1.82.66.24 1.3.53 1.93.83.64.29 1.27.61 1.89.97.68.37 1.36.79 2.02 1.23.57.35 1.12.75 1.65 1.14.24.18.51.37.75.57.4.29.75.59 1.12.9.13.11.26.22.4.35.53.46 1.05.94 1.56 1.45.55.55 1.08 1.12 1.58 1.71.44.48.83.99 1.23 1.49.15.2.31.39.46.61.39.53.79 1.08 1.14 1.65.44.66.86 1.34 1.23 2.02.35.61.68 1.25.97 1.89.24.51.48 1.01.68 1.52.13.29.24.57.35.88.15.37.29.75.42 1.14.48 1.36.86 2.75 1.14 4.17.09.53.2 1.05.26 1.58.09.55.15 1.12.22 1.67.11 1.14.18 2.28.18 3.45s-.07 2.31-.18 3.45c-.11 1.1-.29 2.17-.48 3.25m14.49-39.64a55.944 55.944 0 0 0-6.61-7.93 58.107 58.107 0 0 0-7.21-6.11c-.04-.04-.09-.09-.15-.11-.17-.13-.37-.26-.55-.4-.37-.26-.77-.53-1.14-.77-.59-.39-1.19-.77-1.8-1.14a53.47 53.47 0 0 0-4.04-2.24c-1.32-.66-2.68-1.3-4.06-1.85-2.09-.88-4.2-1.6-6.37-2.2-2.86-.81-5.8-1.38-8.79-1.74-2.22-.26-4.48-.4-6.74-.4-.79 0-1.56.02-2.35.04-.59.02-1.16.07-1.74.11-.68.04-1.34.09-2 .18-.81.07-1.6.17-2.42.29-.22.04-.42.07-.62.11-.86.13-1.69.29-2.53.46-.79.15-1.58.33-2.35.53-1.3.31-2.57.68-3.84 1.1-.64.2-1.27.42-1.91.66-1.05.37-2.06.79-3.1 1.23-.75.33-1.47.66-2.22 1.01a50.39 50.39 0 0 0-3.23 1.71c-.57.31-1.12.62-1.67.97-.73.42-1.43.88-2.11 1.34-.29.2-.59.4-.88.59-.55.37-1.1.77-1.63 1.19-.75.55-1.47 1.12-2.2 1.71a55.69 55.69 0 0 0-4.11 3.71v.02c-1.32 1.3-2.57 2.68-3.73 4.11-.59.72-1.17 1.45-1.71 2.2-.02 0-.02.02-.02.02-.4.53-.77 1.05-1.14 1.58l-1.05 1.52.04.04C3.4 35.48 0 46.27 0 57.82s3.43 22.36 9.31 31.41l-.04.04 1.05 1.49c.37.53.75 1.08 1.14 1.58l.02.02c.55.75 1.12 1.47 1.71 2.2 1.16 1.43 2.42 2.81 3.73 4.11v.02c2.4 2.42 5.05 4.66 7.91 6.61.22.15.44.31.66.44 2.22 1.52 4.53 2.86 6.92 4.02.11.07.22.11.33.15.81.37 1.6.75 2.42 1.1.11.07.2.11.31.13.79.33 1.6.66 2.42.94.02.02.04.02.07.02.88.33 1.78.64 2.68.92.9.26 1.8.53 2.72.77.92.24 1.87.46 2.81.64.83.18 1.67.33 2.53.46.2.04.4.07.62.11.81.11 1.6.22 2.42.29.66.09 1.32.13 2 .18.57.04 1.14.09 1.74.11.79.02 1.56.04 2.35.04 2.26 0 4.53-.13 6.74-.4a55.41 55.41 0 0 0 13.05-3.1c.7-.26 1.4-.53 2.11-.81.75-.29 1.49-.61 2.24-.97 1.3-.61 2.57-1.25 3.82-1.93.64-.35 1.27-.73 1.89-1.1 1.05-.64 2.11-1.32 3.12-2.02.24-.15.46-.33.68-.48v10.81h24.17V57.8c0-11.89-3.58-23.26-10.35-32.95" fill="#ffffff" data-color="1"/>
        <path fill="#ffffff" d="m22.21 293.02-5.57-7.62v7.62h-3.39v-13.17h3.49l5.33 7.25v-7.25h3.42v13.17h-3.28z" data-color="1"/>
        <path fill="#ffffff" d="M31.81 293.02v-13.17h9.65v2.96H35.2v2.06h6.12v2.96H35.2v2.23h6.26v2.96h-9.65z" data-color="1"/>
        <path fill="#ffffff" d="m57.43 293.02-1.99-8.25-1.99 8.25h-3.6l-3.77-13.17h3.81l2 8.79 2.25-8.79h2.6l2.25 8.79 1.98-8.79h3.83l-3.77 13.17h-3.6z" data-color="1"/>
        <path fill="#ffffff" d="M82.41 293.02v-5.31l-4.99-7.86h3.83l2.86 4.86 2.82-4.86h3.85l-4.97 7.86v5.31h-3.4z" data-color="1"/>
        <path d="M104.86 286.44c0-2.15-1.4-3.81-3.57-3.81s-3.59 1.66-3.59 3.81 1.4 3.81 3.59 3.81 3.57-1.68 3.57-3.81m-10.62 0c0-4.01 3.02-6.81 7.05-6.81s7.03 2.8 7.03 6.81-3 6.81-7.03 6.81-7.05-2.8-7.05-6.81" fill="#ffffff" data-color="1"/>
        <path d="M121.7 284.21c0-.89-.75-1.4-1.64-1.4h-2.68v2.82h2.68c.89 0 1.64-.49 1.64-1.42m-.37 8.81-2.21-4.42h-1.74v4.42h-3.39v-13.17h6.59c2.92 0 4.58 1.93 4.58 4.38 0 2.29-1.4 3.51-2.63 3.95l2.68 4.84h-3.89Z" fill="#ffffff" data-color="1"/>
        <path fill="#ffffff" d="m138.72 293.02-3.45-4.96-.89 1.11v3.85h-3.39v-13.17h3.39v5.41l4.05-5.41h4.18l-5.11 6.16 5.39 7.01h-4.17z" data-color="1"/>
        <path d="M164.57 284.21c0-.89-.75-1.4-1.64-1.4h-2.68v2.82h2.68c.89 0 1.64-.49 1.64-1.42m-.38 8.81-2.21-4.42h-1.74v4.42h-3.39v-13.17h6.59c2.92 0 4.58 1.93 4.58 4.38 0 2.29-1.4 3.51-2.63 3.95l2.68 4.84h-3.89Z" fill="#ffffff" data-color="1"/>
        <path fill="#ffffff" d="M173.85 293.02v-13.17h9.65v2.96h-6.25v2.06h6.12v2.96h-6.12v2.23h6.25v2.96h-9.65z" data-color="1"/>
        <path d="m195.12 283.21-1.68 4.96h3.36l-1.68-4.96Zm3.25 9.81-.65-1.9h-5.19l-.65 1.9h-3.85l4.95-13.17h4.26l4.97 13.17h-3.85Z" fill="#ffffff" data-color="1"/>
        <path fill="#ffffff" d="M207.14 293.02v-13.17h3.4v10.21h5.29v2.96h-8.69z" data-color="1"/>
        <path fill="#ffffff" d="M222.5 293.02v-10.21h-3.69v-2.96h10.76v2.96h-3.67v10.21h-3.4z" data-color="1"/>
        <path fill="#ffffff" d="M238.73 293.02v-5.31l-4.99-7.86h3.83l2.86 4.86 2.82-4.86h3.85l-4.97 7.86v5.31h-3.4z" data-color="1"/>
    </g>
</svg>
